<mxfile host="Electron" modified="2024-06-20T15:35:26.141Z" agent="Mozilla/5.0 (Windows NT 10.0; Win64; x64) AppleWebKit/537.36 (KHTML, like Gecko) draw.io/22.1.2 Chrome/114.0.5735.289 Electron/25.9.4 Safari/537.36" etag="o5C8Z46WbSMMPUcrtm89" version="22.1.2" type="device">
  <diagram name="Страница — 1" id="QAOES2rsxgINLvXlSmxL">
    <mxGraphModel dx="2205" dy="1005" grid="0" gridSize="10" guides="1" tooltips="1" connect="1" arrows="1" fold="1" page="0" pageScale="1" pageWidth="827" pageHeight="1169" math="0" shadow="0">
      <root>
        <mxCell id="0" />
        <mxCell id="1" parent="0" />
        <mxCell id="h0sbMx4AeCTmEXI2aT-u-16" value="Структура информационного отдела предприятия" style="shape=umlFrame;whiteSpace=wrap;html=1;pointerEvents=0;recursiveResize=0;container=1;collapsible=0;width=228;height=40;rounded=0;" parent="1" vertex="1">
          <mxGeometry x="-740" y="347" width="719" height="189" as="geometry" />
        </mxCell>
        <mxCell id="h0sbMx4AeCTmEXI2aT-u-2" value="Отел информационных систем" style="rounded=0;whiteSpace=wrap;html=1;" parent="h0sbMx4AeCTmEXI2aT-u-16" vertex="1">
          <mxGeometry x="302.5" y="6" width="120" height="60" as="geometry" />
        </mxCell>
        <mxCell id="h0sbMx4AeCTmEXI2aT-u-3" value="Группа управления производством и развития" style="rounded=0;whiteSpace=wrap;html=1;" parent="h0sbMx4AeCTmEXI2aT-u-16" vertex="1">
          <mxGeometry x="39" y="113" width="120" height="60" as="geometry" />
        </mxCell>
        <mxCell id="h0sbMx4AeCTmEXI2aT-u-4" value="Группа систем управления ресурсами предприяти" style="rounded=0;whiteSpace=wrap;html=1;" parent="h0sbMx4AeCTmEXI2aT-u-16" vertex="1">
          <mxGeometry x="170" y="113" width="120" height="60" as="geometry" />
        </mxCell>
        <mxCell id="h0sbMx4AeCTmEXI2aT-u-8" value="Группа нормативно-спавочной информации" style="rounded=0;whiteSpace=wrap;html=1;" parent="h0sbMx4AeCTmEXI2aT-u-16" vertex="1">
          <mxGeometry x="302.5" y="113" width="120" height="60" as="geometry" />
        </mxCell>
        <mxCell id="h0sbMx4AeCTmEXI2aT-u-9" value="Группа сопровождения информационных систем" style="rounded=0;whiteSpace=wrap;html=1;" parent="h0sbMx4AeCTmEXI2aT-u-16" vertex="1">
          <mxGeometry x="433.4999999999999" y="113" width="120" height="60" as="geometry" />
        </mxCell>
        <mxCell id="h0sbMx4AeCTmEXI2aT-u-10" value="Бюро программного обеспечения собственной разработки" style="rounded=0;whiteSpace=wrap;html=1;" parent="h0sbMx4AeCTmEXI2aT-u-16" vertex="1">
          <mxGeometry x="564.9999999999999" y="113" width="120" height="60" as="geometry" />
        </mxCell>
        <mxCell id="h0sbMx4AeCTmEXI2aT-u-11" style="edgeStyle=orthogonalEdgeStyle;rounded=0;orthogonalLoop=1;jettySize=auto;html=1;exitX=0.5;exitY=1;exitDx=0;exitDy=0;endArrow=none;endFill=0;" parent="h0sbMx4AeCTmEXI2aT-u-16" source="h0sbMx4AeCTmEXI2aT-u-2" target="h0sbMx4AeCTmEXI2aT-u-3" edge="1">
          <mxGeometry relative="1" as="geometry" />
        </mxCell>
        <mxCell id="h0sbMx4AeCTmEXI2aT-u-12" style="edgeStyle=orthogonalEdgeStyle;rounded=0;orthogonalLoop=1;jettySize=auto;html=1;exitX=0.5;exitY=1;exitDx=0;exitDy=0;endArrow=none;endFill=0;" parent="h0sbMx4AeCTmEXI2aT-u-16" source="h0sbMx4AeCTmEXI2aT-u-2" target="h0sbMx4AeCTmEXI2aT-u-4" edge="1">
          <mxGeometry relative="1" as="geometry" />
        </mxCell>
        <mxCell id="h0sbMx4AeCTmEXI2aT-u-13" style="edgeStyle=orthogonalEdgeStyle;rounded=0;orthogonalLoop=1;jettySize=auto;html=1;exitX=0.5;exitY=1;exitDx=0;exitDy=0;endArrow=none;endFill=0;" parent="h0sbMx4AeCTmEXI2aT-u-16" source="h0sbMx4AeCTmEXI2aT-u-2" target="h0sbMx4AeCTmEXI2aT-u-8" edge="1">
          <mxGeometry relative="1" as="geometry" />
        </mxCell>
        <mxCell id="h0sbMx4AeCTmEXI2aT-u-14" style="edgeStyle=orthogonalEdgeStyle;rounded=0;orthogonalLoop=1;jettySize=auto;html=1;exitX=0.5;exitY=1;exitDx=0;exitDy=0;endArrow=none;endFill=0;" parent="h0sbMx4AeCTmEXI2aT-u-16" source="h0sbMx4AeCTmEXI2aT-u-2" target="h0sbMx4AeCTmEXI2aT-u-9" edge="1">
          <mxGeometry relative="1" as="geometry" />
        </mxCell>
        <mxCell id="h0sbMx4AeCTmEXI2aT-u-15" style="edgeStyle=orthogonalEdgeStyle;rounded=0;orthogonalLoop=1;jettySize=auto;html=1;exitX=0.5;exitY=1;exitDx=0;exitDy=0;endArrow=none;endFill=0;" parent="h0sbMx4AeCTmEXI2aT-u-16" source="h0sbMx4AeCTmEXI2aT-u-2" target="h0sbMx4AeCTmEXI2aT-u-10" edge="1">
          <mxGeometry relative="1" as="geometry" />
        </mxCell>
        <mxCell id="h0sbMx4AeCTmEXI2aT-u-17" value="База данных для информационной системы" style="shape=umlFrame;whiteSpace=wrap;html=1;pointerEvents=0;recursiveResize=0;container=1;collapsible=0;width=188;height=40;rounded=0;" parent="1" vertex="1">
          <mxGeometry x="21.560000000000002" y="350" width="340" height="180" as="geometry" />
        </mxCell>
        <mxCell id="h0sbMx4AeCTmEXI2aT-u-18" value="Диаграмма использования&amp;nbsp;" style="shape=umlFrame;whiteSpace=wrap;html=1;pointerEvents=0;recursiveResize=0;container=1;collapsible=0;width=168;height=30;rounded=0;" parent="1" vertex="1">
          <mxGeometry x="20.000000000000004" y="560" width="340" height="180" as="geometry" />
        </mxCell>
        <mxCell id="h0sbMx4AeCTmEXI2aT-u-19" value="Диаграмма последовательности&amp;nbsp;" style="shape=umlFrame;whiteSpace=wrap;html=1;pointerEvents=0;recursiveResize=0;container=1;collapsible=0;width=180;height=40;rounded=0;" parent="1" vertex="1">
          <mxGeometry x="20" y="760" width="340" height="180" as="geometry" />
        </mxCell>
        <mxCell id="h0sbMx4AeCTmEXI2aT-u-20" value="Диаграмма классов" style="shape=umlFrame;whiteSpace=wrap;html=1;pointerEvents=0;recursiveResize=0;container=1;collapsible=0;width=168;height=30;rounded=0;" parent="1" vertex="1">
          <mxGeometry x="20" y="960" width="340" height="180" as="geometry" />
        </mxCell>
        <mxCell id="h0sbMx4AeCTmEXI2aT-u-21" value="Диаграмма коммуникации" style="shape=umlFrame;whiteSpace=wrap;html=1;pointerEvents=0;recursiveResize=0;container=1;collapsible=0;width=168;height=30;rounded=0;" parent="1" vertex="1">
          <mxGeometry x="-740" y="560" width="340" height="180" as="geometry" />
        </mxCell>
        <mxCell id="h0sbMx4AeCTmEXI2aT-u-22" value="Диаграмма деятельности" style="shape=umlFrame;whiteSpace=wrap;html=1;pointerEvents=0;recursiveResize=0;container=1;collapsible=0;width=180;height=30;rounded=0;" parent="1" vertex="1">
          <mxGeometry x="-740" y="763.5" width="340" height="180" as="geometry" />
        </mxCell>
        <mxCell id="h0sbMx4AeCTmEXI2aT-u-23" value="Диаграмма развёртывания" style="shape=umlFrame;whiteSpace=wrap;html=1;pointerEvents=0;recursiveResize=0;container=1;collapsible=0;width=168;height=30;rounded=0;" parent="1" vertex="1">
          <mxGeometry x="-360" y="963.5" width="340" height="180" as="geometry" />
        </mxCell>
        <mxCell id="h0sbMx4AeCTmEXI2aT-u-24" value="Диаграмма компонентов" style="shape=umlFrame;whiteSpace=wrap;html=1;pointerEvents=0;recursiveResize=0;container=1;collapsible=0;width=168;height=30;rounded=0;" parent="1" vertex="1">
          <mxGeometry x="-360" y="563.5" width="340" height="180" as="geometry" />
        </mxCell>
        <mxCell id="h0sbMx4AeCTmEXI2aT-u-25" value="Диаграмма потоков данных" style="shape=umlFrame;whiteSpace=wrap;html=1;pointerEvents=0;recursiveResize=0;container=1;collapsible=0;width=180;height=30;rounded=0;" parent="1" vertex="1">
          <mxGeometry x="-360" y="763.5" width="340" height="180" as="geometry" />
        </mxCell>
        <mxCell id="h0sbMx4AeCTmEXI2aT-u-26" value="Диаграмма состояний" style="shape=umlFrame;whiteSpace=wrap;html=1;pointerEvents=0;recursiveResize=0;container=1;collapsible=0;width=168;height=30;rounded=0;" parent="1" vertex="1">
          <mxGeometry x="-740" y="963.5" width="340" height="180" as="geometry" />
        </mxCell>
        <mxCell id="ZFE43mVk2SUWOSgyw2Yy-1" value="Топология сети предприятия" style="shape=umlFrame;whiteSpace=wrap;html=1;pointerEvents=0;recursiveResize=0;container=1;collapsible=0;width=188;height=40;rounded=0;" vertex="1" parent="1">
          <mxGeometry x="405" y="314" width="971" height="792" as="geometry" />
        </mxCell>
        <mxCell id="ZFE43mVk2SUWOSgyw2Yy-60" style="edgeStyle=orthogonalEdgeStyle;rounded=0;orthogonalLoop=1;jettySize=auto;html=1;exitX=0.755;exitY=0.5;exitDx=0;exitDy=0;exitPerimeter=0;endArrow=none;endFill=0;entryX=0.055;entryY=0.5;entryDx=0;entryDy=0;entryPerimeter=0;" edge="1" parent="1" source="ZFE43mVk2SUWOSgyw2Yy-3" target="ZFE43mVk2SUWOSgyw2Yy-4">
          <mxGeometry relative="1" as="geometry" />
        </mxCell>
        <mxCell id="ZFE43mVk2SUWOSgyw2Yy-3" value="Employee" style="shape=mxgraph.cisco.computers_and_peripherals.workstation;sketch=0;html=1;pointerEvents=1;dashed=0;fillColor=#036897;strokeColor=#ffffff;strokeWidth=2;verticalLabelPosition=bottom;verticalAlign=top;align=center;outlineConnect=0;" vertex="1" parent="1">
          <mxGeometry x="1069.5" y="430.5" width="83" height="62" as="geometry" />
        </mxCell>
        <mxCell id="ZFE43mVk2SUWOSgyw2Yy-4" value="Ip telehone" style="shape=mxgraph.cisco.modems_and_phones.ip_phone;sketch=0;html=1;pointerEvents=1;dashed=0;fillColor=#036897;strokeColor=#ffffff;strokeWidth=2;verticalLabelPosition=bottom;verticalAlign=top;align=center;outlineConnect=0;" vertex="1" parent="1">
          <mxGeometry x="1148" y="438.5" width="90" height="50" as="geometry" />
        </mxCell>
        <mxCell id="ZFE43mVk2SUWOSgyw2Yy-28" style="edgeStyle=orthogonalEdgeStyle;rounded=0;orthogonalLoop=1;jettySize=auto;html=1;exitX=1;exitY=0.5;exitDx=0;exitDy=0;exitPerimeter=0;endArrow=none;endFill=0;" edge="1" parent="1" source="ZFE43mVk2SUWOSgyw2Yy-5" target="ZFE43mVk2SUWOSgyw2Yy-8">
          <mxGeometry relative="1" as="geometry" />
        </mxCell>
        <mxCell id="ZFE43mVk2SUWOSgyw2Yy-5" value="Router" style="sketch=0;points=[[0.5,0,0],[1,0.5,0],[0.5,1,0],[0,0.5,0],[0.145,0.145,0],[0.8555,0.145,0],[0.855,0.8555,0],[0.145,0.855,0]];verticalLabelPosition=bottom;html=1;verticalAlign=top;aspect=fixed;align=center;pointerEvents=1;shape=mxgraph.cisco19.rect;prIcon=router;fillColor=#FAFAFA;strokeColor=#005073;" vertex="1" parent="1">
          <mxGeometry x="875" y="546" width="50" height="50" as="geometry" />
        </mxCell>
        <mxCell id="ZFE43mVk2SUWOSgyw2Yy-7" value="Server" style="shape=mxgraph.cisco.servers.file_server;sketch=0;html=1;pointerEvents=1;dashed=0;fillColor=#036897;strokeColor=#ffffff;strokeWidth=2;verticalLabelPosition=bottom;verticalAlign=top;align=center;outlineConnect=0;" vertex="1" parent="1">
          <mxGeometry x="814.55" y="540" width="43" height="58" as="geometry" />
        </mxCell>
        <mxCell id="ZFE43mVk2SUWOSgyw2Yy-30" style="edgeStyle=orthogonalEdgeStyle;rounded=0;orthogonalLoop=1;jettySize=auto;html=1;exitX=1;exitY=0.5;exitDx=0;exitDy=0;exitPerimeter=0;endArrow=none;endFill=0;" edge="1" parent="1" source="ZFE43mVk2SUWOSgyw2Yy-8" target="ZFE43mVk2SUWOSgyw2Yy-36">
          <mxGeometry relative="1" as="geometry">
            <mxPoint x="1135" y="566.4999999999998" as="targetPoint" />
          </mxGeometry>
        </mxCell>
        <mxCell id="ZFE43mVk2SUWOSgyw2Yy-33" style="edgeStyle=orthogonalEdgeStyle;rounded=0;orthogonalLoop=1;jettySize=auto;html=1;exitX=1;exitY=0.5;exitDx=0;exitDy=0;exitPerimeter=0;endArrow=none;endFill=0;entryX=0.5;entryY=0;entryDx=0;entryDy=0;entryPerimeter=0;" edge="1" parent="1" source="ZFE43mVk2SUWOSgyw2Yy-8" target="ZFE43mVk2SUWOSgyw2Yy-37">
          <mxGeometry relative="1" as="geometry">
            <mxPoint x="1072" y="648.5" as="targetPoint" />
          </mxGeometry>
        </mxCell>
        <mxCell id="ZFE43mVk2SUWOSgyw2Yy-8" value="Switch" style="shape=mxgraph.cisco.switches.atm_switch;sketch=0;html=1;pointerEvents=1;dashed=0;fillColor=#036897;strokeColor=#ffffff;strokeWidth=2;verticalLabelPosition=bottom;verticalAlign=top;align=center;outlineConnect=0;" vertex="1" parent="1">
          <mxGeometry x="945" y="538.5" width="54" height="56" as="geometry" />
        </mxCell>
        <mxCell id="ZFE43mVk2SUWOSgyw2Yy-9" value="Printer" style="shape=mxgraph.cisco.computers_and_peripherals.printer;sketch=0;html=1;pointerEvents=1;dashed=0;fillColor=#036897;strokeColor=#ffffff;strokeWidth=2;verticalLabelPosition=bottom;verticalAlign=top;align=center;outlineConnect=0;" vertex="1" parent="1">
          <mxGeometry x="885" y="396.5" width="91" height="34" as="geometry" />
        </mxCell>
        <mxCell id="ZFE43mVk2SUWOSgyw2Yy-26" style="edgeStyle=orthogonalEdgeStyle;rounded=0;orthogonalLoop=1;jettySize=auto;html=1;exitX=0.755;exitY=0.5;exitDx=0;exitDy=0;exitPerimeter=0;endArrow=none;endFill=0;" edge="1" parent="1" source="ZFE43mVk2SUWOSgyw2Yy-10" target="ZFE43mVk2SUWOSgyw2Yy-11">
          <mxGeometry relative="1" as="geometry" />
        </mxCell>
        <mxCell id="ZFE43mVk2SUWOSgyw2Yy-10" value="Boss" style="shape=mxgraph.cisco.computers_and_peripherals.workstation;sketch=0;html=1;pointerEvents=1;dashed=0;fillColor=#036897;strokeColor=#ffffff;strokeWidth=2;verticalLabelPosition=bottom;verticalAlign=top;align=center;outlineConnect=0;" vertex="1" parent="1">
          <mxGeometry x="985" y="338.5" width="83" height="62" as="geometry" />
        </mxCell>
        <mxCell id="ZFE43mVk2SUWOSgyw2Yy-11" value="Ip telehone" style="shape=mxgraph.cisco.modems_and_phones.ip_phone;sketch=0;html=1;pointerEvents=1;dashed=0;fillColor=#036897;strokeColor=#ffffff;strokeWidth=2;verticalLabelPosition=bottom;verticalAlign=top;align=center;outlineConnect=0;" vertex="1" parent="1">
          <mxGeometry x="1084" y="338.5" width="90" height="50" as="geometry" />
        </mxCell>
        <mxCell id="ZFE43mVk2SUWOSgyw2Yy-14" value="Employee" style="shape=mxgraph.cisco.computers_and_peripherals.workstation;sketch=0;html=1;pointerEvents=1;dashed=0;fillColor=#036897;strokeColor=#ffffff;strokeWidth=2;verticalLabelPosition=bottom;verticalAlign=top;align=center;outlineConnect=0;" vertex="1" parent="1">
          <mxGeometry x="1069.5" y="618.5" width="83" height="62" as="geometry" />
        </mxCell>
        <mxCell id="ZFE43mVk2SUWOSgyw2Yy-15" value="Ip telehone" style="shape=mxgraph.cisco.modems_and_phones.ip_phone;sketch=0;html=1;pointerEvents=1;dashed=0;fillColor=#036897;strokeColor=#ffffff;strokeWidth=2;verticalLabelPosition=bottom;verticalAlign=top;align=center;outlineConnect=0;" vertex="1" parent="1">
          <mxGeometry x="1239" y="707.5" width="90" height="50" as="geometry" />
        </mxCell>
        <mxCell id="ZFE43mVk2SUWOSgyw2Yy-16" value="Employee" style="shape=mxgraph.cisco.computers_and_peripherals.workstation;sketch=0;html=1;pointerEvents=1;dashed=0;fillColor=#036897;strokeColor=#ffffff;strokeWidth=2;verticalLabelPosition=bottom;verticalAlign=top;align=center;outlineConnect=0;" vertex="1" parent="1">
          <mxGeometry x="895.5" y="701.5" width="83" height="62" as="geometry" />
        </mxCell>
        <mxCell id="ZFE43mVk2SUWOSgyw2Yy-20" value="Printer" style="shape=mxgraph.cisco.computers_and_peripherals.printer;sketch=0;html=1;pointerEvents=1;dashed=0;fillColor=#036897;strokeColor=#ffffff;strokeWidth=2;verticalLabelPosition=bottom;verticalAlign=top;align=center;outlineConnect=0;" vertex="1" parent="1">
          <mxGeometry x="1148" y="549.5" width="91" height="34" as="geometry" />
        </mxCell>
        <mxCell id="ZFE43mVk2SUWOSgyw2Yy-21" value="Employee" style="shape=mxgraph.cisco.computers_and_peripherals.workstation;sketch=0;html=1;pointerEvents=1;dashed=0;fillColor=#036897;strokeColor=#ffffff;strokeWidth=2;verticalLabelPosition=bottom;verticalAlign=top;align=center;outlineConnect=0;" vertex="1" parent="1">
          <mxGeometry x="1148" y="700.5" width="83" height="62" as="geometry" />
        </mxCell>
        <mxCell id="ZFE43mVk2SUWOSgyw2Yy-22" value="Employee" style="shape=mxgraph.cisco.computers_and_peripherals.workstation;sketch=0;html=1;pointerEvents=1;dashed=0;fillColor=#036897;strokeColor=#ffffff;strokeWidth=2;verticalLabelPosition=bottom;verticalAlign=top;align=center;outlineConnect=0;" vertex="1" parent="1">
          <mxGeometry x="858.5" y="958.5" width="83" height="62" as="geometry" />
        </mxCell>
        <mxCell id="ZFE43mVk2SUWOSgyw2Yy-25" style="edgeStyle=orthogonalEdgeStyle;rounded=0;orthogonalLoop=1;jettySize=auto;html=1;exitX=0.5;exitY=0;exitDx=0;exitDy=0;exitPerimeter=0;entryX=0.44;entryY=1.043;entryDx=0;entryDy=0;entryPerimeter=0;endArrow=none;endFill=0;" edge="1" parent="1" source="ZFE43mVk2SUWOSgyw2Yy-35" target="ZFE43mVk2SUWOSgyw2Yy-10">
          <mxGeometry relative="1" as="geometry">
            <mxPoint x="1072" y="438.4999999999999" as="sourcePoint" />
          </mxGeometry>
        </mxCell>
        <mxCell id="ZFE43mVk2SUWOSgyw2Yy-27" style="edgeStyle=orthogonalEdgeStyle;rounded=0;orthogonalLoop=1;jettySize=auto;html=1;exitX=1;exitY=0.5;exitDx=0;exitDy=0;exitPerimeter=0;entryX=0;entryY=0.5;entryDx=0;entryDy=0;entryPerimeter=0;endArrow=none;endFill=0;" edge="1" parent="1" source="ZFE43mVk2SUWOSgyw2Yy-7" target="ZFE43mVk2SUWOSgyw2Yy-5">
          <mxGeometry relative="1" as="geometry" />
        </mxCell>
        <mxCell id="ZFE43mVk2SUWOSgyw2Yy-29" style="edgeStyle=orthogonalEdgeStyle;rounded=0;orthogonalLoop=1;jettySize=auto;html=1;exitX=1;exitY=0.5;exitDx=0;exitDy=0;exitPerimeter=0;entryX=0.5;entryY=1;entryDx=0;entryDy=0;entryPerimeter=0;endArrow=none;endFill=0;" edge="1" parent="1" source="ZFE43mVk2SUWOSgyw2Yy-8" target="ZFE43mVk2SUWOSgyw2Yy-35">
          <mxGeometry relative="1" as="geometry">
            <mxPoint x="1072" y="494.5" as="targetPoint" />
          </mxGeometry>
        </mxCell>
        <mxCell id="ZFE43mVk2SUWOSgyw2Yy-56" style="edgeStyle=orthogonalEdgeStyle;rounded=0;orthogonalLoop=1;jettySize=auto;html=1;exitX=0;exitY=0.5;exitDx=0;exitDy=0;exitPerimeter=0;endArrow=none;endFill=0;" edge="1" parent="1" source="ZFE43mVk2SUWOSgyw2Yy-35" target="ZFE43mVk2SUWOSgyw2Yy-9">
          <mxGeometry relative="1" as="geometry" />
        </mxCell>
        <mxCell id="ZFE43mVk2SUWOSgyw2Yy-35" value="Router" style="sketch=0;points=[[0.5,0,0],[1,0.5,0],[0.5,1,0],[0,0.5,0],[0.145,0.145,0],[0.8555,0.145,0],[0.855,0.8555,0],[0.145,0.855,0]];verticalLabelPosition=bottom;html=1;verticalAlign=top;aspect=fixed;align=center;pointerEvents=1;shape=mxgraph.cisco19.rect;prIcon=router;fillColor=#FAFAFA;strokeColor=#005073;" vertex="1" parent="1">
          <mxGeometry x="999" y="438.5" width="50" height="50" as="geometry" />
        </mxCell>
        <mxCell id="ZFE43mVk2SUWOSgyw2Yy-57" style="edgeStyle=orthogonalEdgeStyle;rounded=0;orthogonalLoop=1;jettySize=auto;html=1;exitX=0.5;exitY=0;exitDx=0;exitDy=0;exitPerimeter=0;endArrow=none;endFill=0;" edge="1" parent="1" source="ZFE43mVk2SUWOSgyw2Yy-36" target="ZFE43mVk2SUWOSgyw2Yy-3">
          <mxGeometry relative="1" as="geometry" />
        </mxCell>
        <mxCell id="ZFE43mVk2SUWOSgyw2Yy-61" style="edgeStyle=orthogonalEdgeStyle;rounded=0;orthogonalLoop=1;jettySize=auto;html=1;exitX=1;exitY=0.5;exitDx=0;exitDy=0;exitPerimeter=0;endArrow=none;endFill=0;" edge="1" parent="1" source="ZFE43mVk2SUWOSgyw2Yy-36" target="ZFE43mVk2SUWOSgyw2Yy-20">
          <mxGeometry relative="1" as="geometry" />
        </mxCell>
        <mxCell id="ZFE43mVk2SUWOSgyw2Yy-62" style="edgeStyle=orthogonalEdgeStyle;rounded=0;orthogonalLoop=1;jettySize=auto;html=1;exitX=0.5;exitY=1;exitDx=0;exitDy=0;exitPerimeter=0;endArrow=none;endFill=0;" edge="1" parent="1" source="ZFE43mVk2SUWOSgyw2Yy-36" target="ZFE43mVk2SUWOSgyw2Yy-14">
          <mxGeometry relative="1" as="geometry" />
        </mxCell>
        <mxCell id="ZFE43mVk2SUWOSgyw2Yy-36" value="Router" style="sketch=0;points=[[0.5,0,0],[1,0.5,0],[0.5,1,0],[0,0.5,0],[0.145,0.145,0],[0.8555,0.145,0],[0.855,0.8555,0],[0.145,0.855,0]];verticalLabelPosition=bottom;html=1;verticalAlign=top;aspect=fixed;align=center;pointerEvents=1;shape=mxgraph.cisco19.rect;prIcon=router;fillColor=#FAFAFA;strokeColor=#005073;" vertex="1" parent="1">
          <mxGeometry x="1086" y="541.5" width="50" height="50" as="geometry" />
        </mxCell>
        <mxCell id="ZFE43mVk2SUWOSgyw2Yy-64" style="edgeStyle=orthogonalEdgeStyle;rounded=0;orthogonalLoop=1;jettySize=auto;html=1;exitX=0;exitY=0.5;exitDx=0;exitDy=0;exitPerimeter=0;endArrow=none;endFill=0;" edge="1" parent="1" source="ZFE43mVk2SUWOSgyw2Yy-37" target="ZFE43mVk2SUWOSgyw2Yy-16">
          <mxGeometry relative="1" as="geometry" />
        </mxCell>
        <mxCell id="ZFE43mVk2SUWOSgyw2Yy-65" style="edgeStyle=orthogonalEdgeStyle;rounded=0;orthogonalLoop=1;jettySize=auto;html=1;exitX=0.5;exitY=1;exitDx=0;exitDy=0;exitPerimeter=0;endArrow=none;endFill=0;" edge="1" parent="1" source="ZFE43mVk2SUWOSgyw2Yy-37" target="ZFE43mVk2SUWOSgyw2Yy-63">
          <mxGeometry relative="1" as="geometry" />
        </mxCell>
        <mxCell id="ZFE43mVk2SUWOSgyw2Yy-66" style="edgeStyle=orthogonalEdgeStyle;rounded=0;orthogonalLoop=1;jettySize=auto;html=1;exitX=1;exitY=0.5;exitDx=0;exitDy=0;exitPerimeter=0;endArrow=none;endFill=0;" edge="1" parent="1" source="ZFE43mVk2SUWOSgyw2Yy-37" target="ZFE43mVk2SUWOSgyw2Yy-21">
          <mxGeometry relative="1" as="geometry" />
        </mxCell>
        <mxCell id="ZFE43mVk2SUWOSgyw2Yy-74" style="edgeStyle=orthogonalEdgeStyle;rounded=0;orthogonalLoop=1;jettySize=auto;html=1;exitX=1;exitY=0.5;exitDx=0;exitDy=0;exitPerimeter=0;endArrow=none;endFill=0;" edge="1" parent="1" source="ZFE43mVk2SUWOSgyw2Yy-37" target="ZFE43mVk2SUWOSgyw2Yy-69">
          <mxGeometry relative="1" as="geometry">
            <Array as="points">
              <mxPoint x="1049" y="788.5" />
              <mxPoint x="1194" y="788.5" />
            </Array>
          </mxGeometry>
        </mxCell>
        <mxCell id="ZFE43mVk2SUWOSgyw2Yy-75" style="edgeStyle=orthogonalEdgeStyle;rounded=0;orthogonalLoop=1;jettySize=auto;html=1;exitX=1;exitY=0.5;exitDx=0;exitDy=0;exitPerimeter=0;endArrow=none;endFill=0;" edge="1" parent="1" source="ZFE43mVk2SUWOSgyw2Yy-37" target="ZFE43mVk2SUWOSgyw2Yy-72">
          <mxGeometry relative="1" as="geometry">
            <Array as="points">
              <mxPoint x="1049" y="888.5" />
              <mxPoint x="1194" y="888.5" />
            </Array>
          </mxGeometry>
        </mxCell>
        <mxCell id="ZFE43mVk2SUWOSgyw2Yy-78" style="edgeStyle=orthogonalEdgeStyle;rounded=0;orthogonalLoop=1;jettySize=auto;html=1;exitX=1;exitY=0.5;exitDx=0;exitDy=0;exitPerimeter=0;endArrow=none;endFill=0;" edge="1" parent="1" source="ZFE43mVk2SUWOSgyw2Yy-37" target="ZFE43mVk2SUWOSgyw2Yy-77">
          <mxGeometry relative="1" as="geometry">
            <Array as="points">
              <mxPoint x="1049" y="858.5" />
              <mxPoint x="1049" y="858.5" />
            </Array>
          </mxGeometry>
        </mxCell>
        <mxCell id="ZFE43mVk2SUWOSgyw2Yy-79" style="edgeStyle=orthogonalEdgeStyle;rounded=0;orthogonalLoop=1;jettySize=auto;html=1;exitX=1;exitY=0.5;exitDx=0;exitDy=0;exitPerimeter=0;endArrow=none;endFill=0;" edge="1" parent="1" source="ZFE43mVk2SUWOSgyw2Yy-37" target="ZFE43mVk2SUWOSgyw2Yy-76">
          <mxGeometry relative="1" as="geometry">
            <Array as="points">
              <mxPoint x="1049" y="879.5" />
              <mxPoint x="997" y="879.5" />
            </Array>
          </mxGeometry>
        </mxCell>
        <mxCell id="ZFE43mVk2SUWOSgyw2Yy-80" style="edgeStyle=orthogonalEdgeStyle;rounded=0;orthogonalLoop=1;jettySize=auto;html=1;exitX=1;exitY=0.5;exitDx=0;exitDy=0;exitPerimeter=0;endArrow=none;endFill=0;" edge="1" parent="1" source="ZFE43mVk2SUWOSgyw2Yy-37" target="ZFE43mVk2SUWOSgyw2Yy-22">
          <mxGeometry relative="1" as="geometry">
            <Array as="points">
              <mxPoint x="1049" y="878.5" />
              <mxPoint x="935" y="878.5" />
            </Array>
          </mxGeometry>
        </mxCell>
        <mxCell id="ZFE43mVk2SUWOSgyw2Yy-81" style="edgeStyle=orthogonalEdgeStyle;rounded=0;orthogonalLoop=1;jettySize=auto;html=1;exitX=1;exitY=0.5;exitDx=0;exitDy=0;exitPerimeter=0;endArrow=none;endFill=0;" edge="1" parent="1" source="ZFE43mVk2SUWOSgyw2Yy-37" target="ZFE43mVk2SUWOSgyw2Yy-59">
          <mxGeometry relative="1" as="geometry">
            <Array as="points">
              <mxPoint x="1049" y="878.5" />
            </Array>
          </mxGeometry>
        </mxCell>
        <mxCell id="ZFE43mVk2SUWOSgyw2Yy-37" value="Router" style="sketch=0;points=[[0.5,0,0],[1,0.5,0],[0.5,1,0],[0,0.5,0],[0.145,0.145,0],[0.8555,0.145,0],[0.855,0.8555,0],[0.145,0.855,0]];verticalLabelPosition=bottom;html=1;verticalAlign=top;aspect=fixed;align=center;pointerEvents=1;shape=mxgraph.cisco19.rect;prIcon=router;fillColor=#FAFAFA;strokeColor=#005073;" vertex="1" parent="1">
          <mxGeometry x="999" y="707.25" width="50" height="50" as="geometry" />
        </mxCell>
        <mxCell id="ZFE43mVk2SUWOSgyw2Yy-41" value="Server" style="shape=mxgraph.cisco.servers.file_server;sketch=0;html=1;pointerEvents=1;dashed=0;fillColor=#036897;strokeColor=#ffffff;strokeWidth=2;verticalLabelPosition=bottom;verticalAlign=top;align=center;outlineConnect=0;" vertex="1" parent="1">
          <mxGeometry x="754.55" y="470" width="43" height="58" as="geometry" />
        </mxCell>
        <mxCell id="ZFE43mVk2SUWOSgyw2Yy-45" style="edgeStyle=orthogonalEdgeStyle;rounded=0;orthogonalLoop=1;jettySize=auto;html=1;exitX=1;exitY=0.5;exitDx=0;exitDy=0;exitPerimeter=0;endArrow=none;endFill=0;" edge="1" parent="1" source="ZFE43mVk2SUWOSgyw2Yy-42" target="ZFE43mVk2SUWOSgyw2Yy-7">
          <mxGeometry relative="1" as="geometry" />
        </mxCell>
        <mxCell id="ZFE43mVk2SUWOSgyw2Yy-46" style="edgeStyle=orthogonalEdgeStyle;rounded=0;orthogonalLoop=1;jettySize=auto;html=1;exitX=0;exitY=0.5;exitDx=0;exitDy=0;exitPerimeter=0;endArrow=none;endFill=0;" edge="1" parent="1" source="ZFE43mVk2SUWOSgyw2Yy-42" target="ZFE43mVk2SUWOSgyw2Yy-43">
          <mxGeometry relative="1" as="geometry" />
        </mxCell>
        <mxCell id="ZFE43mVk2SUWOSgyw2Yy-42" value="Server" style="shape=mxgraph.cisco.servers.file_server;sketch=0;html=1;pointerEvents=1;dashed=0;fillColor=#036897;strokeColor=#ffffff;strokeWidth=2;verticalLabelPosition=bottom;verticalAlign=top;align=center;outlineConnect=0;" vertex="1" parent="1">
          <mxGeometry x="748.55" y="605" width="43" height="58" as="geometry" />
        </mxCell>
        <mxCell id="ZFE43mVk2SUWOSgyw2Yy-43" value="Internet&lt;br&gt;Server" style="shape=mxgraph.cisco.servers.file_server;sketch=0;html=1;pointerEvents=1;dashed=0;fillColor=#036897;strokeColor=#ffffff;strokeWidth=2;verticalLabelPosition=bottom;verticalAlign=top;align=center;outlineConnect=0;" vertex="1" parent="1">
          <mxGeometry x="685" y="536" width="43" height="58" as="geometry" />
        </mxCell>
        <mxCell id="ZFE43mVk2SUWOSgyw2Yy-44" style="edgeStyle=orthogonalEdgeStyle;rounded=0;orthogonalLoop=1;jettySize=auto;html=1;exitX=0.5;exitY=0;exitDx=0;exitDy=0;exitPerimeter=0;entryX=1;entryY=0.5;entryDx=0;entryDy=0;entryPerimeter=0;endArrow=none;endFill=0;" edge="1" parent="1" source="ZFE43mVk2SUWOSgyw2Yy-7" target="ZFE43mVk2SUWOSgyw2Yy-41">
          <mxGeometry relative="1" as="geometry" />
        </mxCell>
        <mxCell id="ZFE43mVk2SUWOSgyw2Yy-47" style="edgeStyle=orthogonalEdgeStyle;rounded=0;orthogonalLoop=1;jettySize=auto;html=1;exitX=0.5;exitY=0;exitDx=0;exitDy=0;exitPerimeter=0;entryX=0;entryY=0.5;entryDx=0;entryDy=0;entryPerimeter=0;endArrow=none;endFill=0;" edge="1" parent="1" source="ZFE43mVk2SUWOSgyw2Yy-43" target="ZFE43mVk2SUWOSgyw2Yy-41">
          <mxGeometry relative="1" as="geometry" />
        </mxCell>
        <mxCell id="ZFE43mVk2SUWOSgyw2Yy-48" style="edgeStyle=orthogonalEdgeStyle;rounded=0;orthogonalLoop=1;jettySize=auto;html=1;exitX=0;exitY=1;exitDx=0;exitDy=0;exitPerimeter=0;entryX=1;entryY=0;entryDx=0;entryDy=0;entryPerimeter=0;endArrow=none;endFill=0;" edge="1" parent="1" source="ZFE43mVk2SUWOSgyw2Yy-41" target="ZFE43mVk2SUWOSgyw2Yy-43">
          <mxGeometry relative="1" as="geometry" />
        </mxCell>
        <mxCell id="ZFE43mVk2SUWOSgyw2Yy-49" style="edgeStyle=orthogonalEdgeStyle;rounded=0;orthogonalLoop=1;jettySize=auto;html=1;exitX=0.89;exitY=0.9;exitDx=0;exitDy=0;exitPerimeter=0;entryX=0.14;entryY=0.08;entryDx=0;entryDy=0;entryPerimeter=0;endArrow=none;endFill=0;" edge="1" parent="1" source="ZFE43mVk2SUWOSgyw2Yy-43" target="ZFE43mVk2SUWOSgyw2Yy-42">
          <mxGeometry relative="1" as="geometry" />
        </mxCell>
        <mxCell id="ZFE43mVk2SUWOSgyw2Yy-50" style="edgeStyle=orthogonalEdgeStyle;rounded=0;orthogonalLoop=1;jettySize=auto;html=1;exitX=1;exitY=0;exitDx=0;exitDy=0;exitPerimeter=0;entryX=0;entryY=1;entryDx=0;entryDy=0;entryPerimeter=0;endArrow=none;endFill=0;" edge="1" parent="1" source="ZFE43mVk2SUWOSgyw2Yy-42" target="ZFE43mVk2SUWOSgyw2Yy-7">
          <mxGeometry relative="1" as="geometry" />
        </mxCell>
        <mxCell id="ZFE43mVk2SUWOSgyw2Yy-51" style="edgeStyle=orthogonalEdgeStyle;rounded=0;orthogonalLoop=1;jettySize=auto;html=1;exitX=0.14;exitY=0.08;exitDx=0;exitDy=0;exitPerimeter=0;entryX=0.89;entryY=0.9;entryDx=0;entryDy=0;entryPerimeter=0;endArrow=none;endFill=0;" edge="1" parent="1" source="ZFE43mVk2SUWOSgyw2Yy-7" target="ZFE43mVk2SUWOSgyw2Yy-41">
          <mxGeometry relative="1" as="geometry" />
        </mxCell>
        <mxCell id="ZFE43mVk2SUWOSgyw2Yy-54" style="edgeStyle=orthogonalEdgeStyle;rounded=0;orthogonalLoop=1;jettySize=auto;html=1;exitX=0;exitY=0.5;exitDx=0;exitDy=0;exitPerimeter=0;entryX=1;entryY=0.5;entryDx=0;entryDy=0;endArrow=none;endFill=0;" edge="1" parent="1" source="ZFE43mVk2SUWOSgyw2Yy-52" target="ZFE43mVk2SUWOSgyw2Yy-53">
          <mxGeometry relative="1" as="geometry" />
        </mxCell>
        <mxCell id="ZFE43mVk2SUWOSgyw2Yy-55" style="edgeStyle=orthogonalEdgeStyle;rounded=0;orthogonalLoop=1;jettySize=auto;html=1;exitX=1;exitY=0.5;exitDx=0;exitDy=0;exitPerimeter=0;endArrow=none;endFill=0;" edge="1" parent="1" source="ZFE43mVk2SUWOSgyw2Yy-52" target="ZFE43mVk2SUWOSgyw2Yy-43">
          <mxGeometry relative="1" as="geometry" />
        </mxCell>
        <mxCell id="ZFE43mVk2SUWOSgyw2Yy-52" value="Firewall" style="sketch=0;points=[[0.015,0.015,0],[0.985,0.015,0],[0.985,0.985,0],[0.015,0.985,0],[0.25,0,0],[0.5,0,0],[0.75,0,0],[1,0.25,0],[1,0.5,0],[1,0.75,0],[0.75,1,0],[0.5,1,0],[0.25,1,0],[0,0.75,0],[0,0.5,0],[0,0.25,0]];verticalLabelPosition=bottom;html=1;verticalAlign=top;aspect=fixed;align=center;pointerEvents=1;shape=mxgraph.cisco19.rect;prIcon=firewall;fillColor=#FAFAFA;strokeColor=#005073;" vertex="1" parent="1">
          <mxGeometry x="556.47" y="522.5" width="108.8" height="85" as="geometry" />
        </mxCell>
        <mxCell id="ZFE43mVk2SUWOSgyw2Yy-53" value="Internet" style="image;aspect=fixed;perimeter=ellipsePerimeter;html=1;align=center;shadow=0;dashed=0;spacingTop=3;image=img/lib/active_directory/internet_cloud.svg;" vertex="1" parent="1">
          <mxGeometry x="435" y="531" width="107.94" height="68" as="geometry" />
        </mxCell>
        <mxCell id="ZFE43mVk2SUWOSgyw2Yy-59" value="Employee" style="shape=mxgraph.cisco.computers_and_peripherals.workstation;sketch=0;html=1;pointerEvents=1;dashed=0;fillColor=#036897;strokeColor=#ffffff;strokeWidth=2;verticalLabelPosition=bottom;verticalAlign=top;align=center;outlineConnect=0;" vertex="1" parent="1">
          <mxGeometry x="833" y="860" width="83" height="62" as="geometry" />
        </mxCell>
        <mxCell id="ZFE43mVk2SUWOSgyw2Yy-63" value="Printer" style="shape=mxgraph.cisco.computers_and_peripherals.printer;sketch=0;html=1;pointerEvents=1;dashed=0;fillColor=#036897;strokeColor=#ffffff;strokeWidth=2;verticalLabelPosition=bottom;verticalAlign=top;align=center;outlineConnect=0;" vertex="1" parent="1">
          <mxGeometry x="937" y="808.5" width="91" height="34" as="geometry" />
        </mxCell>
        <mxCell id="ZFE43mVk2SUWOSgyw2Yy-67" style="edgeStyle=orthogonalEdgeStyle;rounded=0;orthogonalLoop=1;jettySize=auto;html=1;exitX=0.755;exitY=0.5;exitDx=0;exitDy=0;exitPerimeter=0;entryX=0.055;entryY=0.5;entryDx=0;entryDy=0;entryPerimeter=0;endArrow=none;endFill=0;" edge="1" parent="1" source="ZFE43mVk2SUWOSgyw2Yy-21" target="ZFE43mVk2SUWOSgyw2Yy-15">
          <mxGeometry relative="1" as="geometry" />
        </mxCell>
        <mxCell id="ZFE43mVk2SUWOSgyw2Yy-68" value="Ip telehone" style="shape=mxgraph.cisco.modems_and_phones.ip_phone;sketch=0;html=1;pointerEvents=1;dashed=0;fillColor=#036897;strokeColor=#ffffff;strokeWidth=2;verticalLabelPosition=bottom;verticalAlign=top;align=center;outlineConnect=0;" vertex="1" parent="1">
          <mxGeometry x="1243.5" y="808" width="90" height="50" as="geometry" />
        </mxCell>
        <mxCell id="ZFE43mVk2SUWOSgyw2Yy-69" value="Employee" style="shape=mxgraph.cisco.computers_and_peripherals.workstation;sketch=0;html=1;pointerEvents=1;dashed=0;fillColor=#036897;strokeColor=#ffffff;strokeWidth=2;verticalLabelPosition=bottom;verticalAlign=top;align=center;outlineConnect=0;" vertex="1" parent="1">
          <mxGeometry x="1152.5" y="801" width="83" height="62" as="geometry" />
        </mxCell>
        <mxCell id="ZFE43mVk2SUWOSgyw2Yy-70" style="edgeStyle=orthogonalEdgeStyle;rounded=0;orthogonalLoop=1;jettySize=auto;html=1;exitX=0.755;exitY=0.5;exitDx=0;exitDy=0;exitPerimeter=0;entryX=0.055;entryY=0.5;entryDx=0;entryDy=0;entryPerimeter=0;endArrow=none;endFill=0;" edge="1" parent="1" source="ZFE43mVk2SUWOSgyw2Yy-69" target="ZFE43mVk2SUWOSgyw2Yy-68">
          <mxGeometry relative="1" as="geometry" />
        </mxCell>
        <mxCell id="ZFE43mVk2SUWOSgyw2Yy-71" value="Ip telehone" style="shape=mxgraph.cisco.modems_and_phones.ip_phone;sketch=0;html=1;pointerEvents=1;dashed=0;fillColor=#036897;strokeColor=#ffffff;strokeWidth=2;verticalLabelPosition=bottom;verticalAlign=top;align=center;outlineConnect=0;" vertex="1" parent="1">
          <mxGeometry x="1243.5" y="915.5" width="90" height="50" as="geometry" />
        </mxCell>
        <mxCell id="ZFE43mVk2SUWOSgyw2Yy-72" value="Employee" style="shape=mxgraph.cisco.computers_and_peripherals.workstation;sketch=0;html=1;pointerEvents=1;dashed=0;fillColor=#036897;strokeColor=#ffffff;strokeWidth=2;verticalLabelPosition=bottom;verticalAlign=top;align=center;outlineConnect=0;" vertex="1" parent="1">
          <mxGeometry x="1152.5" y="908.5" width="83" height="62" as="geometry" />
        </mxCell>
        <mxCell id="ZFE43mVk2SUWOSgyw2Yy-73" style="edgeStyle=orthogonalEdgeStyle;rounded=0;orthogonalLoop=1;jettySize=auto;html=1;exitX=0.755;exitY=0.5;exitDx=0;exitDy=0;exitPerimeter=0;entryX=0.055;entryY=0.5;entryDx=0;entryDy=0;entryPerimeter=0;endArrow=none;endFill=0;" edge="1" parent="1" source="ZFE43mVk2SUWOSgyw2Yy-72" target="ZFE43mVk2SUWOSgyw2Yy-71">
          <mxGeometry relative="1" as="geometry" />
        </mxCell>
        <mxCell id="ZFE43mVk2SUWOSgyw2Yy-76" value="Employee" style="shape=mxgraph.cisco.computers_and_peripherals.workstation;sketch=0;html=1;pointerEvents=1;dashed=0;fillColor=#036897;strokeColor=#ffffff;strokeWidth=2;verticalLabelPosition=bottom;verticalAlign=top;align=center;outlineConnect=0;" vertex="1" parent="1">
          <mxGeometry x="955" y="1001" width="83" height="62" as="geometry" />
        </mxCell>
        <mxCell id="ZFE43mVk2SUWOSgyw2Yy-77" value="Employee" style="shape=mxgraph.cisco.computers_and_peripherals.workstation;sketch=0;html=1;pointerEvents=1;dashed=0;fillColor=#036897;strokeColor=#ffffff;strokeWidth=2;verticalLabelPosition=bottom;verticalAlign=top;align=center;outlineConnect=0;" vertex="1" parent="1">
          <mxGeometry x="1049" y="1001" width="83" height="62" as="geometry" />
        </mxCell>
      </root>
    </mxGraphModel>
  </diagram>
</mxfile>
